<?xml version="1.0" encoding="UTF-8"?>
<!DOCTYPE svg PUBLIC "-//W3C//DTD SVG 1.1//EN" "http://www.w3.org/Graphics/SVG/1.1/DTD/svg11.dtd">
<!-- Creator: CorelDRAW 2021 (64-Bit) -->
<svg xmlns="http://www.w3.org/2000/svg" xml:space="preserve" width="4.23332cm" height="4.23332cm" version="1.1" style="shape-rendering:geometricPrecision; text-rendering:geometricPrecision; image-rendering:optimizeQuality; fill-rule:evenodd; clip-rule:evenodd"
viewBox="0 0 4233.32 4233.32"
 xmlns:xlink="http://www.w3.org/1999/xlink"
 xmlns:xodm="http://www.corel.com/coreldraw/odm/2003">
 <defs>
  <style type="text/css">
   <![CDATA[
    .fil0 {fill:#878785}
    .fil1 {fill:#FFCCCC;fill-rule:nonzero}
   ]]>
  </style>
 </defs>
 <g id="Camada_x0020_1">
  <metadata id="CorelCorpID_0Corel-Layer"/>
  <circle class="fil0" cx="2116.66" cy="2116.66" r="2056.82"/>
  <path class="fil1" d="M3474.49 2248.66c5.05,-3.76 17.94,-18.85 38.68,-45.26 20.73,-26.38 44.01,-56.56 69.76,-90.53 25.79,-33.94 49.37,-65.37 70.74,-94.29 21.36,-28.92 35.19,-48.4 41.5,-58.44 7.52,-11.32 18.53,-18.57 32.99,-21.71 14.47,-3.13 28.61,-4.7 42.45,-4.7l15.08 0c16.35,1.25 31.43,5.02 45.24,11.32 13.83,6.28 23.27,17.6 28.29,33.94 7.56,38.96 11.32,77.95 11.32,116.91l0 60.35c0,56.59 3.77,113.81 11.33,171.62 1.25,13.83 4.7,26.41 10.35,37.73 5.68,11.3 14.15,20.74 25.47,28.3 5.02,2.51 7.56,5.64 7.56,9.41 0,2.51 -1.29,5.68 -3.79,9.44 -7.53,11.32 -14.15,18.85 -19.8,22.62 -5.64,3.79 -14.77,7.56 -27.35,11.32 -3.77,1.26 -6.9,1.88 -9.41,1.88 -18.89,0 -33.35,-14.46 -43.38,-43.38 -11.33,-32.68 -18.86,-74.15 -22.65,-124.47 -3.77,-50.28 -6.27,-99.94 -7.53,-148.96 -1.25,-62.87 -4.39,-106.88 -9.44,-132.03 -5.02,2.51 -11.29,8.5 -18.85,17.91 -7.53,9.44 -14.78,18.85 -21.68,28.29 -6.93,9.44 -11.64,15.4 -14.15,17.91l-64.11 94.3c-18.89,27.66 -38.37,55.96 -58.47,84.88 -10.07,12.58 -19.48,25.12 -28.3,37.7l-26.41 33.94c-32.68,46.52 -65.37,76.07 -98.06,88.65 -32.68,12.58 -59.72,18.85 -81.08,18.85 -17.6,0 -34.6,-3.14 -50.94,-9.41 -35.2,-13.83 -60.36,-42.75 -75.41,-86.76 -10.07,-38.96 -15.09,-78.58 -15.09,-118.79 0,-16.38 0.63,-32.72 1.88,-49.06 7.53,-108.13 32.06,-211.83 73.53,-311.18 11.32,-30.17 21.71,-48.08 31.12,-53.73 9.44,-5.68 22.33,-8.5 38.67,-8.5 8.79,0 18.23,0.63 28.3,1.88l5.64 0c21.4,0 42.13,2.51 62.24,7.56 10.07,3.77 16.65,7.53 19.79,11.33 3.17,3.76 4.74,8.78 4.74,15.05l0 7.56c0,10.07 -0.63,20.74 -1.89,32.06 0,5.02 -0.62,9.44 -1.91,13.21 -2.51,32.68 -5.65,65.37 -9.41,98.05 -10.07,70.42 -15.09,141.44 -15.09,213.12l0 24.53 3.77 30.17c0,2.51 0.62,4.4 1.88,5.65 0,1.25 0.63,2.51 1.88,3.76z"/>
  <path class="fil1" d="M2720.12 2248.66c5.05,-3.76 17.94,-18.85 38.68,-45.26 20.73,-26.38 44.01,-56.56 69.76,-90.53 25.78,-33.94 49.37,-65.37 70.73,-94.29 21.37,-28.92 35.2,-48.4 41.5,-58.44 7.53,-11.32 18.54,-18.57 33,-21.71 14.46,-3.13 28.61,-4.7 42.44,-4.7l15.09 0c16.35,1.25 31.43,5.02 45.24,11.32 13.83,6.28 23.27,17.6 28.29,33.94 7.56,38.96 11.32,77.95 11.32,116.91l0 60.35c0,56.59 3.77,113.81 11.33,171.62 1.25,13.83 4.7,26.41 10.35,37.73 5.68,11.3 14.15,20.74 25.47,28.3 5.02,2.51 7.56,5.64 7.56,9.41 0,2.51 -1.29,5.68 -3.8,9.44 -7.52,11.32 -14.14,18.85 -19.79,22.62 -5.65,3.79 -14.77,7.56 -27.35,11.32 -3.77,1.26 -6.9,1.88 -9.41,1.88 -18.89,0 -33.35,-14.46 -43.39,-43.38 -11.32,-32.68 -18.85,-74.15 -22.64,-124.47 -3.77,-50.28 -6.28,-99.94 -7.53,-148.96 -1.26,-62.87 -4.39,-106.88 -9.44,-132.03 -5.02,2.51 -11.3,8.5 -18.86,17.91 -7.52,9.44 -14.77,18.85 -21.67,28.29 -6.93,9.44 -11.64,15.4 -14.15,17.91l-64.11 94.3c-18.89,27.66 -38.37,55.96 -58.47,84.88 -10.07,12.58 -19.48,25.12 -28.3,37.7l-26.41 33.94c-32.69,46.52 -65.37,76.07 -98.06,88.65 -32.68,12.58 -59.72,18.85 -81.08,18.85 -17.6,0 -34.6,-3.14 -50.95,-9.41 -35.19,-13.83 -60.35,-42.75 -75.4,-86.76 -10.07,-38.96 -15.09,-78.58 -15.09,-118.79 0,-16.38 0.63,-32.72 1.88,-49.06 7.53,-108.13 32.06,-211.83 73.53,-311.18 11.32,-30.17 21.7,-48.08 31.11,-53.73 9.45,-5.68 22.34,-8.5 38.68,-8.5 8.78,0 18.23,0.63 28.29,1.88l5.65 0c21.39,0 42.13,2.51 62.24,7.56 10.06,3.77 16.65,7.53 19.79,11.33 3.17,3.76 4.74,8.78 4.74,15.05l0 7.56c0,10.07 -0.63,20.74 -1.89,32.06 0,5.02 -0.62,9.44 -1.91,13.21 -2.51,32.68 -5.65,65.37 -9.41,98.05 -10.07,70.42 -15.09,141.44 -15.09,213.12l0 24.53 3.77 30.17c0,2.51 0.62,4.4 1.88,5.65 0,1.25 0.62,2.51 1.88,3.76z"/>
  <path class="fil1" d="M1965.75 2342.05c5.02,-1.26 9.13,-3.77 12.26,-7.56 3.14,-3.77 5.34,-8.16 6.59,-13.18l3.8 -7.56c30.17,-47.77 64.74,-92.41 103.7,-133.91 28.92,-30.14 50.94,-46.51 66.03,-49.02 15.09,-2.51 25.12,-3.77 30.17,-3.77 16.35,0 31.44,5.65 45.24,16.97 11.32,10.07 20.45,21.08 27.35,33 6.93,11.95 12.89,24.22 17.91,36.8 5.05,13.83 11.33,26.38 18.89,37.7 7.52,11.32 18.85,20.11 33.94,26.41 16.34,6.28 34.56,9.41 54.67,9.41 7.56,0 15.72,-0.62 24.53,-1.88 28.92,-3.76 54.05,-11.29 75.44,-22.62 11.32,-5.01 21.99,-7.56 32.06,-7.56l5.64 0c8.82,2.55 13.21,6.94 13.21,13.21l0 1.88c-1.25,8.82 -11.32,17.6 -30.18,26.41 -59.09,28.93 -110,43.39 -152.76,43.39 -15.09,0 -28.92,-1.89 -41.47,-5.68 -26.41,-8.78 -45.89,-21.68 -58.47,-38.65 -12.58,-16.97 -22.64,-33.62 -30.17,-49.97 -7.56,-18.85 -16.35,-31.43 -26.41,-37.73 -5.02,-2.51 -10.7,-3.77 -16.97,-3.77 -13.84,0 -28.3,8.19 -43.39,24.53 -36.45,42.73 -67.56,85.17 -93.35,127.3 -25.75,42.12 -48.09,88.96 -66.94,140.49 -17.6,51.54 -32.68,103.74 -45.26,156.53 -5.02,21.36 -18.85,39.93 -41.5,55.65 -22.62,15.71 -40.22,23.87 -52.79,24.5 -12.58,0.62 -19.48,0.94 -20.74,0.94 -21.39,0 -37.73,-10.04 -49.06,-30.18 -16.34,-45.26 -25.44,-103.7 -27.32,-175.38 -1.91,-71.67 -2.85,-131.37 -2.85,-179.17 0,-49.03 0.62,-97.43 1.91,-145.21 5.02,-96.8 10.66,-169.73 16.97,-218.76 16.34,-135.79 58.44,-264.02 126.35,-384.73 38.96,-67.88 94.29,-101.85 165.97,-101.85 8.78,0 17.6,0.63 26.38,1.91l1.88 0c30.18,2.51 60.35,6.91 90.53,13.18 12.58,1.25 19.48,3.48 20.76,6.62 1.26,3.13 1.89,5.33 1.89,6.58 0,5.06 -2.51,11.33 -7.56,18.86 -49.03,108.12 -90.53,218.79 -124.47,331.93 -40.22,139.56 -69.14,281 -86.73,424.32 -2.55,12.58 -4.43,25.79 -5.68,39.62z"/>
  <path class="fil1" d="M1433.93 2723.95c-8.81,-81.72 -13.2,-162.8 -13.2,-243.29 0,-27.64 0.62,-54.68 1.88,-81.09 3.76,-108.13 10.07,-216.25 18.85,-324.38 6.31,-80.46 11.95,-160.92 16.97,-241.38 0,-6.3 0,-14.46 0,-24.53 0,-10.07 -0.63,-20.1 -1.88,-30.17 -1.26,-10.07 -2.51,-17.29 -3.76,-21.68 -1.26,-4.42 -3.77,-6.62 -7.56,-6.62l-3.77 1.89c-3.76,3.79 -8.78,12.89 -15.09,27.35 -6.27,14.46 -12.58,29.86 -18.85,46.2 -6.27,16.35 -10.7,28.3 -13.2,35.83 -32.69,98.08 -66.63,195.83 -101.86,293.26 -35.19,97.46 -74.78,193.32 -118.79,287.61 -45.26,96.8 -99.34,188.59 -162.2,275.35 -25.13,41.47 -61.61,85.16 -109.38,131.06 -47.78,45.89 -100.88,85.51 -159.35,118.82 -58.47,33.31 -102.48,50.6 -132.03,51.85 -29.55,1.25 -46.83,1.88 -51.85,1.88 -50.29,0 -93.67,-20.1 -130.12,-60.35 -45.26,-56.56 -76.69,-138.58 -94.29,-246.08 -17.63,-107.5 -26.41,-224.76 -26.41,-351.73l0 -28.3c1.25,-139.55 9.41,-279.11 24.5,-418.67 15.08,-139.55 33.97,-265.9 56.58,-379.08 22.65,-113.15 45.27,-199.91 67.89,-260.23 13.83,-20.14 38.36,-35.85 73.55,-47.18 35.2,-11.29 63.81,-17.28 85.83,-17.91 21.99,-0.63 34.88,-0.94 38.64,-0.94 33.94,0 62.86,4.42 86.77,13.21 22.61,8.81 33.94,22.64 33.94,41.5l0 9.41c-6.28,25.15 -16.35,71.99 -30.18,140.49 -13.83,68.54 -29.55,150.88 -47.15,247.06 -17.59,96.2 -34.25,198.03 -49.97,305.52 -15.71,107.5 -28.6,213.43 -38.67,317.79 -8.79,93.04 -13.21,177.89 -13.21,254.59 0,10.07 0,38.67 0,85.82 0,47.15 7.88,95.23 23.59,144.26 15.72,49.03 41.19,73.56 76.38,73.56l1.88 0c18.86,-1.25 49.35,-14.77 91.47,-40.56 42.13,-25.75 83.91,-66.94 125.41,-123.53 52.83,-76.69 99.35,-156.21 139.56,-238.55 40.24,-82.34 77.32,-166.28 111.26,-251.76 56.59,-137.05 105.93,-265.31 148.06,-384.73 42.13,-119.45 83.28,-250.85 123.53,-394.17 5.02,-21.36 16.97,-37.08 35.82,-47.15 18.85,-10.07 38.36,-15.09 58.47,-15.09l7.53 0c23.9,1.26 43.69,9.45 59.41,24.53 15.71,15.09 23.59,37.08 23.59,66l0 7.56c-21.39,197.37 -39.93,394.77 -55.65,592.17 -15.71,197.4 -23.56,383.47 -23.56,558.23l0 79.2c0,21.36 1.26,39.3 3.77,53.77 2.51,14.42 6.9,31.74 13.2,51.85 1.26,3.76 1.89,6.9 1.89,9.41 0,8.81 -3.77,17.63 -11.33,26.41 -10.04,11.32 -19.48,17.28 -28.29,17.91 -8.78,0.63 -13.84,0.94 -15.09,0.94 -15.09,0 -29.55,-7.53 -43.35,-22.62 -15.09,-17.59 -25.16,-47.77 -30.18,-90.52z"/>
 </g>
</svg>
